<svg width="139px" height="203px" viewBox="0 0 139 203" version="1.1" xmlns="http://www.w3.org/2000/svg">
  <g id="aviation">
    <polygon fill="#D8F6F1" points="69 184 83 196 56 196"></polygon>
    <polygon fill="#D8F6F1" points="9 21 129 21 115 42 23 42"></polygon>
    <polygon fill="#FFFFFF" points="9 21 23 21 38 42 23 42"></polygon>
    <path d="M124.03387,1.02362611 L72.0236261,53.0338698 C70.6587913,54.3987046 70.6587913,56.6115391 72.0236261,57.9763739 C73.3884609,59.3412087 75.6012954,59.3412087 76.9661302,57.9763739 L128.976374,5.96613016 C130.341209,4.60129535 130.341209,2.38846091 128.976374,1.02362611 C127.611539,-0.341208702 125.398705,-0.341208702 124.03387,1.02362611 Z" fill="#430961"></path>
    <circle fill="#FF4B8C" cx="111.5" cy="17.5" r="12.5"></circle>
    <circle fill="#FF4B8C" cx="89.5" cy="39.5" r="12.5"></circle>
    <path d="M28.5006018,203 C24.1057114,203 23.7186132,196.462163 28.0819488,195.929224 C54.1847941,192.741013 66.2812879,184.665378 66.0009616,172.161237 L72.9990529,172 C73.281487,184.598157 85.7671595,192.735144 111.918051,195.929224 C116.281387,196.462163 115.894289,203 111.499398,203 L28.5006018,203 Z M66.0011917,172.582121 C65.8952577,167.913423 72.8869044,167.754262 72.9928384,172.422961 C73.1001045,177.150364 72.0018778,181.339469 69.7331024,185 C67.3611623,181.381116 66.1069969,177.245143 66.0011917,172.582121 Z M83,196 C76.7976526,193.100841 72.2183685,189.440327 69.3186331,185 C66.5769242,189.439761 62.1166021,193.100625 56,196 L83,196 Z" fill="#24204F"></path>
    <polygon fill="#24204F" fill-rule="nonzero" points="73 173 73 111 66 111 66 173"></polygon>
    <polygon fill-opacity="0.9" fill="#643C78" points="23 42 115 42 69 109"></polygon>
    <path d="M129,21 L9,21 L69,109 L129,21 Z M0.79672108,21.0800755 C-0.613822269,19.028631 -0.101820189,16.2169197 1.94030973,14.7999426 C2.69106556,14.279014 3.58188689,14 4.4943244,14 L134.506086,14 C136.988006,14 139,16.0211709 139,18.5144115 C139,19.4310108 138.722253,20.3258953 138.20369,21.0800755 L69.5002053,121 L0.79672108,21.0800755 Z" fill="#24204F"></path>
    <path d="M39.5493347,56.7302384 L63.548939,90.729818 C64.5044032,92.0833979 66.3762488,92.4061312 67.7298232,91.450663 C69.0833976,90.4951949 69.4061296,88.6233415 68.4506653,87.2697616 L44.451061,53.270182 C43.4955968,51.9166021 41.6237512,51.5938688 40.2701768,52.549337 C38.9166024,53.5048051 38.5938704,55.3766585 39.5493347,56.7302384 Z" fill="#FFFFFF"></path>
  </g>
</svg>