<svg width="24px" height="24px" viewBox="0 0 24 24" version="1.1" xmlns="http://www.w3.org/2000/svg">
  <path d="M21.7064386,15.0441792 C21.5002942,14.8275674 21.2357317,14.7132556 20.94175,14.7132556 C20.7011431,14.7132556 20.1110784,14.7925331 19.8242414,15.5264509 C19.7519543,15.7110314 19.7311507,15.8093275 19.6336471,15.7993177 C19.4684794,15.7837025 18.8256703,15.1294626 18.6155333,14.168723 L18.0939733,11.8464518 C18.5060519,11.2104298 18.9296882,10.7195497 19.3522737,10.3866241 C19.5792217,10.2100514 19.8385307,10.11656 20.1524754,10.1003441 C20.9541481,10.0482932 21.2458183,9.95219925 21.4427167,9.82027022 C21.7677986,9.59705192 21.9464151,9.27413611 21.9464151,8.91098094 C21.9464151,8.59146846 21.8194923,8.30658984 21.5786753,8.08717526 C21.3462638,7.87516791 21.0363117,7.76325847 20.6834916,7.76325847 C20.1648735,7.76325847 19.5825838,7.99188206 18.9027906,8.46194178 C18.5014289,8.73981354 18.0759015,9.14380864 17.616542,9.68533826 C17.4671346,9.15421883 17.3393713,8.90677683 17.2443893,8.75883214 C16.9510381,8.29778123 16.4744473,8.29778123 16.3176851,8.29778123 L16.1468437,8.30038378 L11.3042364,8.40929029 L11.5767841,7.30701226 C11.7507775,6.58770878 11.9791964,6.01855214 12.2546861,5.61535782 C12.3887535,5.41916594 12.5938472,5.18533726 12.8090275,5.18533726 C12.8903505,5.18533726 13.0511053,5.19794959 13.3516012,5.25740774 C14.1875263,5.42957613 14.5,5.44939551 14.662646,5.44939551 C15.0215601,5.44939551 15.3371858,5.33508371 15.5761116,5.11887226 C15.8232327,4.89485317 15.9537278,4.60176653 15.9537278,4.27144347 C15.9537278,4.0131909 15.8646297,3.63962555 15.4399428,3.32611894 C15.1465916,3.10970729 14.7441792,3 14.2440531,3 C13.4942843,3 12.6997562,3.2284234 11.881903,3.67866373 C11.0703539,4.12550074 10.4029587,4.74310476 9.89862991,5.51465934 C9.4562915,6.19112092 9.0730016,7.14104995 8.73131882,8.40929029 L6.59716735,8.40929029 L6.12688073,10.1772193 L8.2673363,10.1772193 L6.64087585,16.4065116 C6.30402623,17.6963731 6.05732538,18.0136834 5.9898714,18.0803486 C5.80600151,18.2613256 5.42670421,18.2993628 5.14091788,18.2993628 C4.78725729,18.2993628 4.4102715,18.2751391 4.01689502,18.2270921 C3.74665882,18.1956614 3.54093469,18.1802463 3.38837522,18.1802463 C2.99373792,18.1802463 2.66907624,18.2779418 2.42384635,18.4701298 C2.1504581,18.6841391 2,18.9934416 2,19.3411817 C2,19.6128474 2.09246028,20.0036295 2.53353787,20.3211401 C2.83487434,20.5373515 3.24569219,20.6470588 3.7550643,20.6470588 C5.03038581,20.6470588 6.21892074,20.1643868 7.28809784,19.212656 C8.32764562,18.2869506 9.08918215,16.9278214 9.55190384,15.169702 L10.8377322,10.1778199 L15.2232916,10.2486892 L15.694839,12.1785766 L14.7338825,13.5294978 C14.5607296,13.7715346 14.3028915,14.0702267 13.9652013,14.4185674 C13.7886862,14.6027475 13.6714298,14.7040466 13.6035555,14.7566981 C13.3270152,14.4347832 13.0132807,14.2714235 12.6722283,14.2714235 C12.3517694,14.2714235 12.0607296,14.3965458 11.83126,14.6325767 C11.613558,14.8559952 11.4986131,15.1358689 11.4986131,15.4409673 C11.4986131,15.8073256 11.6631504,16.1334445 11.9743633,16.3836892 C12.2595192,16.6131136 12.611919,16.7296276 13.0210557,16.7296276 C13.5283265,16.7296276 14.0473649,16.5452473 14.5643019,16.1816917 C14.9957132,15.8775943 15.5513155,15.2756055 16.2609481,14.3420926 C16.7169454,15.5913143 17.3637472,16.3944998 17.671808,16.7298278 C18.1578549,17.2591454 18.9429268,17.574654 19.7717072,17.574654 C20.4752459,17.574654 20.8736656,17.2939795 21.2250147,17.0459369 C21.8709759,16.5908919 22,16.1142257 22,15.7897083 C21.9995797,15.5024274 21.8980836,15.2449756 21.7064386,15.0441792 Z" fill="currentcolor"/>
</svg>